PathFileType	4	(X/Y/Z)	Kaydara																																																																																																																																																																																																																												
DataRate	CameraRate	NumFrames	NumMarkers	Units	OrigDataRate	OrigDataStartFrame	OrigNumFrames																																																																																																																																																																																																																								
60	60	4	74	mm	60	2087	203																																																																																																																																																																																																																								
Frame#	Time	N_lasi			N_rasi			N_rpsi			N_lpsi			N_fneck			N_bneck			N_fhead			N_rhead			N_lhead			N_rshld			N_relbtop			N_relbext			N_relblow			N_rwrext			N_rwrtop			N_rwrlow			N_lshld			N_lelblow			N_lelbtop			N_lwrext			N_lwrtop			N_lwrlow			N_rtopleg			N_ltopleg			N_rkneefr			N_rkneebk			N_rkneeis			N_lkneefr			N_lknssbk			N_lkneeis			N_rankfr			N_rankis			N_rankbk			N_lankfr			N_lankbk			N_lankis			D_lasi			D_rasi			D_lpsi			D_fneck			D_bneck			D_fhead			D_rhead			D_lhead			D_rshld			D_relbtop			D_relbext			D_relblow			D_rwrext			D_rwrtop			D_rwrlow			D_lshld			D_lelbext			D_lelblow			D_lelbtop			D_lwrext			D_lwrtop			D_lwrlow			D_rtopleg			D_ltopleg			D_rkneefr			D_rkneebk			D_rkneeis			D_lkneefr			D_lknssbk			D_lkneeis			D_rankfr			D_rankis			D_rankbk			D_lankfr			D_lankbk			D_lankis			D_rpsi			N_lelbext		
		X1	Y1	Z1	X2	Y2	Z2	X3	Y3	Z3	X4	Y4	Z4	X5	Y5	Z5	X6	Y6	Z6	X7	Y7	Z7	X8	Y8	Z8	X9	Y9	Z9	X10	Y10	Z10	X11	Y11	Z11	X12	Y12	Z12	X13	Y13	Z13	X14	Y14	Z14	X15	Y15	Z15	X16	Y16	Z16	X17	Y17	Z17	X18	Y18	Z18	X19	Y19	Z19	X20	Y20	Z20	X21	Y21	Z21	X22	Y22	Z22	X23	Y23	Z23	X24	Y24	Z24	X25	Y25	Z25	X26	Y26	Z26	X27	Y27	Z27	X28	Y28	Z28	X29	Y29	Z29	X30	Y30	Z30	X31	Y31	Z31	X32	Y32	Z32	X33	Y33	Z33	X34	Y34	Z34	X35	Y35	Z35	X36	Y36	Z36	X37	Y37	Z37	X38	Y38	Z38	X39	Y39	Z39	X40	Y40	Z40	X41	Y41	Z41	X42	Y42	Z42	X43	Y43	Z43	X44	Y44	Z44	X45	Y45	Z45	X46	Y46	Z46	X47	Y47	Z47	X48	Y48	Z48	X49	Y49	Z49	X50	Y50	Z50	X51	Y51	Z51	X52	Y52	Z52	X53	Y53	Z53	X54	Y54	Z54	X55	Y55	Z55	X56	Y56	Z56	X57	Y57	Z57	X58	Y58	Z58	X59	Y59	Z59	X60	Y60	Z60	X61	Y61	Z61	X62	Y62	Z62	X63	Y63	Z63	X64	Y64	Z64	X65	Y65	Z65	X66	Y66	Z66	X67	Y67	Z67	X68	Y68	Z68	X69	Y69	Z69	X70	Y70	Z70	X71	Y71	Z71	X72	Y72	Z72	X73	Y73	Z73	X74	Y74	Z74
																																																																																																																																																																																																																															
77	34.767	-522.43156	1239.63974	-90.36352	-497.07615	1281.52191	-314.99069	-241.34714	1249.81445	-375.12512	-262.0586	1218.36914	-22.62472	-381.42807	1608.909	-181.29456	-218.93486	1662.68646	-159.39189	-426.33469	1797.68845	-174.43373	-230.13012	1770.20294	-224.91358	-288.08283	1774.40323	-77.46497	-221.47839	1655.40176	-279.31057	-334.64989	1801.64093	-462.03232	-412.53632	1770.33539	-425.80177	-333.4911	1828.06061	-373.16555	-485.16586	2109.44046	-516.25969	-479.8513	2122.82227	-470.09167	-515.86159	2103.04733	-443.79097	-260.96172	1578.9119	68.1518	-406.88938	1569.09149	285.54846	-382.81273	1486.04706	304.47926	-532.69585	1513.62961	585.26165	-543.9452	1559.56253	587.76955	-586.83704	1554.09088	555.42664	-392.39922	1093.40744	-459.80267	-361.18187	1014.80545	31.36726	-426.42876	561.89129	-267.108	-320.72197	577.56004	-335.84248	-364.18076	565.3878	-174.06778	-376.41411	541.08742	-107.06347	-249.31993	557.19891	-49.5721	-252.75303	546.82453	-199.01186	-296.24109	138.54077	-272.31934	-298.15296	154.33298	-192.54469	-216.14983	140.82705	-217.49393	-331.13503	193.7558	-120.03021	-257.39538	186.55622	-78.14659	-293.39538	165.55622	-162.14659	-460.9864	1039.5681	1741.24481	-430.093	1055.90126	1454.19434	-262.77512	1130.71777	1743.24539	-439.10244	1564.47586	1598.51807	-302.92078	1588.66547	1602.32498	-464.04819	1783.70209	1598.4494	-311.003	1722.01447	1516.39603	-312.24237	1725.13657	1671.48209	-387.72072	1492.28226	1395.36469	-266.64082	1166.40671	1358.42163	-300.62881	1144.99573	1420.88837	-350.7209	1172.19765	1334.14154	-322.46155	917.9039	1351.6832	-377.44057	921.67572	1330.80353	-394.72633	935.19386	1380.49973	-390.66032	1502.02057	1827.21024	-318.86908	1162.8434	1787.44781	-348.3326	1197.86606	1876.40961	-273.12943	1182.07092	1848.83484	-329.13849	937.51022	1872.10388	-372.76577	941.14952	1873.19138	-385.43961	948.90266	1824.79218	-327.80563	1004.07806	1408.63007	-318.02242	1007.04514	1803.59406	-379.53999	454.74682	1450.06317	-280.08068	491.0704	1421.87271	-287.17916	458.65765	1542.53799	-361.66496	448.23418	1771.46423	-249.2063	486.36795	1786.16455	-321.59111	444.1082	1679.46808	-325.16808	130.03569	1417.93915	-295.75657	126.94839	1483.04672	-244.8373	128.65999	1417.84805	-323.93047	134.90041	1792.62421	-251.36208	125.24039	1806.08932	-294.9823	124.24681	1733.05206	-237.25544	1145.95009	1524.57123	-462.35085	1483.01132	260.9486
78	34.783	-522.96021	1240.05112	-90.5765	-496.51974	1281.49948	-315.24899	-240.15978	1249.7982	-373.85757	-263.48427	1218.62915	-21.80672	-381.8512	1609.04602	-180.53314	-219.35793	1662.82303	-158.6305	-426.60583	1797.85049	-174.50888	-230.44409	1770.54016	-223.61301	-288.46998	1774.75433	-77.23979	-221.48794	1655.37796	-278.48438	-333.60809	1801.51001	-461.51714	-411.6325	1770.02655	-426.12297	-333.18569	1827.87704	-372.6889	-484.57809	2109.3103	-516.39153	-479.2968	2122.64633	-470.04391	-515.53307	2102.60086	-444.01566	-261.50766	1584.43344	63.66759	-406.02352	1589.07791	281.19923	-382.59346	1506.44867	304.80804	-533.13988	1553.81134	584.47422	-542.40574	1600.39215	583.91346	-585.42297	1594.18854	551.89823	-391.41037	1093.48297	-459.89895	-362.34711	1014.75113	31.64768	-426.20659	561.95347	-267.17819	-320.32379	577.59312	-335.57995	-364.26323	565.42255	-173.95765	-376.65012	541.04267	-106.93138	-249.54174	557.19585	-49.24984	-252.68049	546.87363	-198.68622	-296.12429	138.59817	-272.34295	-298.13189	154.34657	-192.53508	-216.1709	140.83796	-217.28716	-331.19373	193.75074	-119.93286	-257.51289	186.53713	-77.85734	-293.51289	165.53713	-161.85734	-461.29654	1039.63654	1741.33026	-430.21313	1056.00655	1454.13513	-262.6848	1130.69275	1743.43918	-438.85284	1564.39728	1597.88681	-302.83573	1588.61832	1601.95648	-463.68767	1783.5965	1597.87109	-310.64547	1721.79184	1515.71762	-311.91877	1725.14282	1670.94452	-387.33894	1491.89301	1395.04715	-267.40534	1165.35301	1359.61594	-301.52214	1144.17061	1421.86951	-351.48499	1171.38397	1334.80408	-323.60298	917.15233	1353.94455	-378.28022	920.74127	1332.76352	-395.9338	934.32999	1382.40356	-390.24544	1501.58676	1826.90674	-319.87888	1161.89804	1786.7009	-348.9019	1196.93153	1875.93018	-274.05979	1181.02219	1847.70416	-331.50097	936.78108	1870.2063	-375.2248	940.63324	1870.86868	-387.55783	948.46329	1822.18674	-327.73357	1004.07784	1408.62549	-317.92997	1007.06291	1803.6203	-379.82773	454.71645	1450.03906	-280.30609	491.00517	1421.716	-287.36513	458.62667	1542.43179	-361.69991	448.2373	1771.45126	-249.34353	486.35788	1786.32294	-321.55712	444.10759	1679.5163	-325.24956	129.97393	1417.96951	-295.81413	126.90485	1482.97989	-244.87009	128.65751	1417.88055	-323.95344	134.89996	1792.59247	-251.38857	125.24421	1806.11862	-294.97728	124.24934	1733.04153	-237.33969	1145.76469	1524.86252	-462.20634	1502.10724	261.39997
79	34.8	-523.45837	1240.6012	-90.6862	-495.96073	1281.53534	-315.46371	-239.02594	1249.73297	-372.58575	-264.90059	1218.76518	-20.80466	-382.28531	1609.18594	-179.58517	-219.79214	1662.96326	-157.6825	-426.92616	1798.00156	-174.66545	-230.56694	1770.45731	-223.45995	-289.34917	1775.01175	-76.66962	-221.50881	1655.53558	-277.25506	-332.45663	1801.41922	-461.02013	-410.7016	1769.69711	-426.12553	-332.65942	1827.78397	-372.12738	-483.60916	2109.06769	-516.30913	-478.70075	2122.3613	-470.02831	-515.23186	2102.3143	-444.27174	-262.37974	1590.11673	58.48536	-404.03667	1607.83279	276.13934	-382.15199	1525.75867	305.00593	-532.52846	1592.59979	581.27407	-538.87787	1639.65607	578.19778	-582.44457	1633.07129	546.55323	-390.50682	1093.54614	-459.87885	-363.25039	1014.70772	31.95893	-426.01265	561.98952	-267.2049	-319.8715	577.61257	-335.2869	-364.3819	565.43575	-173.80234	-376.86882	541.01131	-106.82682	-249.96679	557.20661	-48.7958	-252.76955	546.8531	-198.23153	-296.05244	138.61944	-272.35325	-298.15071	154.36412	-192.46223	-216.09175	140.86418	-217.11142	-331.23592	193.73259	-119.83551	-257.60368	186.51958	-77.51104	-293.60368	165.51958	-161.51104	-461.55567	1039.63913	1741.27563	-429.95293	1056.27052	1454.55963	-262.66083	1130.57243	1743.64288	-438.77884	1564.34265	1597.49359	-302.80596	1588.46603	1601.73676	-463.3033	1783.67554	1597.13547	-310.32124	1721.28647	1515.58136	-311.65743	1725.07004	1670.54932	-387.13821	1491.47858	1394.71985	-268.02822	1164.38248	1361.37177	-302.18313	1143.30551	1423.36655	-351.92596	1170.40718	1335.93735	-324.67827	916.30928	1356.76361	-379.25777	919.79553	1335.30716	-397.12521	933.75198	1384.76761	-389.96651	1501.38641	1826.84723	-320.8651	1161.18568	1785.6131	-349.63585	1196.25298	1874.76563	-274.77833	1180.18295	1846.57745	-333.55709	936.10008	1868.16528	-377.27104	940.16197	1868.60229	-389.59354	948.13133	1819.87564	-327.66151	1004.07761	1408.62091	-317.83756	1007.08054	1803.64639	-379.94198	454.74415	1449.90112	-280.51577	490.92987	1421.57806	-287.42023	458.61855	1542.40448	-361.76102	448.22075	1771.42792	-249.48166	486.38409	1786.604	-321.37295	444.15897	1679.47327	-325.26035	129.93509	1417.97485	-295.79079	126.91874	1483.05588	-244.90044	128.66452	1417.84302	-324.00692	134.90412	1792.61063	-251.46795	125.23205	1806.1116	-294.94034	124.24901	1733.10242	-237.05404	1145.49469	1524.85275	-461.9606	1521.06537	260.75592
80	34.817	-523.8916	1241.23169	-90.67322	-495.50327	1281.57166	-315.60162	-237.90129	1249.75296	-371.3221	-266.30524	1219.01672	-19.57095	-382.8471	1609.59503	-178.35905	-220.35391	1663.3725	-156.45639	-427.34413	1798.18268	-174.8716	-230.7358	1770.33798	-222.71687	-290.14393	1775.49896	-76.27445	-221.47589	1655.85464	-275.77442	-331.22704	1801.54846	-460.27893	-409.67262	1769.54819	-426.17638	-332.17476	1827.83798	-371.46801	-482.64606	2109.16916	-516.49498	-478.2618	2122.26471	-469.99226	-514.57783	2102.19772	-444.76486	-263.22765	1595.50751	52.90973	-401.47667	1625.85114	270.08923	-381.58886	1545.02808	303.72162	-530.18555	1630.05722	576.408	-534.74709	1676.98837	570.59692	-578.58479	1670.44403	539.2271	-389.72202	1093.63014	-459.79652	-364.45564	1014.84596	32.43286	-425.84763	562.02618	-267.18811	-319.37037	577.65392	-334.97025	-364.5377	565.44781	-173.60897	-377.07336	541.00971	-106.72057	-250.37199	557.1949	-48.32467	-252.75669	546.90258	-197.81431	-295.89258	138.58047	-272.11407	-298.15073	154.36087	-192.40343	-216.06991	140.88054	-216.95354	-331.3768	193.70428	-119.69144	-257.86312	186.51546	-77.50428	-293.86312	165.51546	-161.50428	-461.87347	1039.65553	1741.17767	-429.89616	1056.14647	1454.25491	-262.7247	1130.43251	1743.71735	-438.80287	1564.32343	1597.19345	-302.89036	1588.22525	1601.37177	-462.81357	1783.79486	1596.50406	-309.74615	1720.98984	1515.05646	-311.47455	1724.94125	1670.29053	-386.90945	1491.08414	1394.37393	-268.33744	1163.43506	1362.53555	-302.54812	1142.48146	1424.52576	-352.0887	1169.48914	1336.98715	-325.73654	915.63332	1359.67667	-380.3495	918.98087	1338.35663	-397.99858	933.08861	1387.84393	-389.66774	1501.21063	1826.80099	-321.23352	1160.63133	1785.01312	-349.67773	1195.72342	1874.06281	-274.95335	1179.51096	1845.96466	-335.10937	935.66872	1866.92291	-378.84499	940.08842	1867.28439	-390.30144	947.74307	1818.4433	-327.58945	1004.0773	1408.61649	-317.74515	1007.09831	1803.67249	-379.99119	454.67201	1449.8053	-280.6015	490.86647	1421.60431	-287.5032	458.61626	1542.37274	-361.86806	448.17223	1771.46622	-249.61605	486.43913	1786.84692	-321.33842	444.17366	1679.48517	-325.23876	129.90689	1417.9184	-295.81055	126.85668	1482.9805	-244.95562	128.58095	1417.88239	-324.07299	134.90877	1792.59491	-251.46221	125.26467	1806.24878	-294.9062	124.27262	1733.1282	-236.84603	1145.27359	1525.11078	-461.38611	1539.729	258.95061
